<?xml version="1.0" standalone="no"?>
<!DOCTYPE svg PUBLIC "-//W3C//DTD SVG 20010904//EN"
 "http://www.w3.org/TR/2001/REC-SVG-20010904/DTD/svg10.dtd">
<svg version="1.0" xmlns="http://www.w3.org/2000/svg"
 width="700.000000pt" height="700.000000pt" viewBox="0 0 700.000000 700.000000"
 preserveAspectRatio="xMidYMid meet">
<metadata>
Created by potrace 1.11, written by Peter Selinger 2001-2013
</metadata>
<g transform="translate(0.000000,700.000000) scale(0.100000,-0.100000)"
fill="#000000" stroke="none">
<path d="M3430 6882 c-40 -13 -102 -69 -124 -113 -23 -46 -24 -58 -24 -251 0
-214 -3 -263 -28 -448 -15 -117 -69 -355 -106 -467 -20 -60 -21 -62 -62 -68
-197 -32 -499 -155 -703 -287 l-91 -59 -79 38 c-294 144 -582 352 -809 584
-83 85 -92 98 -97 140 -26 217 -261 345 -460 250 -176 -84 -242 -295 -145
-461 49 -82 145 -146 237 -157 50 -6 53 -8 188 -147 133 -136 260 -294 355
-441 86 -134 101 -159 169 -294 l69 -135 -24 -40 c-99 -170 -204 -447 -231
-613 l-7 -42 -81 -25 c-114 -34 -227 -62 -327 -80 -225 -41 -266 -44 -558 -46
-211 -1 -213 -2 -265 -29 -160 -84 -152 -316 15 -391 32 -14 73 -17 256 -19
119 0 235 -3 257 -6 113 -13 232 -28 250 -31 11 -2 36 -7 55 -10 59 -10 230
-54 316 -80 l81 -25 17 -82 c17 -79 62 -224 104 -334 11 -29 47 -104 80 -166
l60 -114 -47 -94 c-152 -304 -325 -550 -548 -780 -129 -132 -135 -136 -182
-142 -178 -21 -307 -193 -279 -372 41 -266 359 -370 552 -182 56 56 96 138 96
201 0 30 15 48 138 168 76 73 192 174 257 224 119 89 288 204 300 204 4 0 19
8 33 19 15 10 77 44 139 76 l112 57 103 -65 c191 -122 449 -230 655 -273 l81
-17 25 -81 c25 -77 46 -154 52 -186 2 -8 8 -33 13 -55 9 -35 31 -162 46 -265
9 -61 17 -249 19 -430 3 -186 6 -202 59 -262 32 -37 104 -68 158 -68 78 0 158
49 196 121 19 35 19 31 25 401 3 154 22 317 54 468 9 41 18 82 20 90 7 33 28
109 51 186 23 77 26 82 57 88 18 3 43 8 56 11 190 37 492 166 679 290 l72 48
102 -53 c144 -73 180 -94 323 -190 156 -105 281 -207 417 -340 133 -131 137
-137 142 -183 23 -214 273 -346 468 -246 78 40 144 118 169 201 17 56 12 150
-11 212 -39 104 -149 190 -261 203 -46 5 -53 11 -171 132 -143 147 -154 160
-243 277 -37 49 -73 97 -81 107 -8 9 -14 20 -14 24 0 3 -10 20 -23 37 -41 54
-128 204 -187 322 l-57 115 72 142 c74 147 141 333 171 473 l17 81 46 16 c50
18 294 81 351 91 56 10 151 24 205 30 28 3 69 8 93 11 23 3 138 6 255 6 116 1
225 6 241 10 86 25 156 119 156 208 -1 77 -50 160 -116 194 -45 23 -85 26
-309 28 -322 3 -557 38 -841 125 l-81 26 -18 81 c-29 139 -96 326 -171 476
l-72 144 66 126 c101 196 198 349 316 501 76 98 91 115 224 251 118 121 126
127 170 131 108 11 223 102 262 206 80 214 -73 442 -297 443 -77 1 -116 -9
-177 -45 -84 -49 -141 -138 -153 -235 -5 -48 -10 -54 -122 -163 -129 -125
-176 -168 -260 -232 -162 -124 -333 -232 -504 -318 l-98 -49 -92 59 c-204 132
-506 255 -703 287 l-41 6 -26 82 c-35 111 -67 242 -91 372 -2 11 -7 45 -11 75
-4 30 -9 64 -11 75 -6 28 -15 250 -18 435 -2 172 -9 194 -72 254 -51 48 -147
69 -214 48z"/>
</g>
</svg>
